<svg width="512" height="512" viewBox="0 0 512 512" fill="none" xmlns="http://www.w3.org/2000/svg">
<g clip-path="url(#clip0)">
<path d="M453.332 512H58.668C26.3047 512 0 485.695 0 453.332V58.668C0 26.3047 26.3047 0 58.668 0H453.332C485.695 0 512 26.3047 512 58.668V453.332C512 485.695 485.695 512 453.332 512V512ZM58.668 32C43.9688 32 32 43.9688 32 58.668V453.332C32 468.031 43.9688 480 58.668 480H453.332C468.031 480 480 468.031 480 453.332V58.668C480 43.9688 468.031 32 453.332 32H58.668Z" fill="white"/>
<path d="M346.668 181.332H165.332C156.5 181.332 149.332 174.164 149.332 165.332C149.332 156.5 156.5 149.332 165.332 149.332H346.668C355.5 149.332 362.668 156.5 362.668 165.332C362.668 174.164 355.5 181.332 346.668 181.332Z" fill="white"/>
<path d="M346.668 272H165.332C156.5 272 149.332 264.832 149.332 256C149.332 247.168 156.5 240 165.332 240H346.668C355.5 240 362.668 247.168 362.668 256C362.668 264.832 355.5 272 346.668 272Z" fill="white"/>
<path d="M346.668 362.668H165.332C156.5 362.668 149.332 355.5 149.332 346.668C149.332 337.836 156.5 330.668 165.332 330.668H346.668C355.5 330.668 362.668 337.836 362.668 346.668C362.668 355.5 355.5 362.668 346.668 362.668Z" fill="white"/>
</g>
<defs>
<clipPath id="clip0">
<rect width="512" height="512" fill="white"/>
</clipPath>
</defs>
</svg>
