<svg width="360" height="360" viewBox="0 0 360 360" fill="none" xmlns="http://www.w3.org/2000/svg">
<circle cx="180" cy="180" r="180" fill="white"/>
<path d="M178.547 176.267C192.047 176.267 203.737 171.425 213.288 161.872C222.84 152.321 227.682 140.634 227.682 127.132C227.682 113.635 222.84 101.947 213.287 92.3919C203.734 82.8419 192.045 78 178.547 78C165.045 78 153.358 82.8419 143.806 92.3935C134.255 101.945 129.411 113.634 129.411 127.132C129.411 140.634 134.255 152.322 143.808 161.874C153.361 171.424 165.049 176.267 178.547 176.267V176.267Z" fill="#D7D7D7"/>
<path d="M264.52 234.593C264.245 230.618 263.687 226.282 262.867 221.703C262.039 217.09 260.973 212.729 259.697 208.743C258.379 204.623 256.586 200.555 254.369 196.656C252.069 192.609 249.367 189.086 246.335 186.186C243.165 183.153 239.283 180.714 234.794 178.935C230.321 177.165 225.364 176.269 220.062 176.269C217.979 176.269 215.965 177.123 212.076 179.656C209.682 181.217 206.882 183.022 203.757 185.019C201.085 186.722 197.464 188.317 192.993 189.761C188.63 191.173 184.201 191.889 179.829 191.889C175.457 191.889 171.029 191.173 166.662 189.761C162.195 188.318 158.575 186.723 155.905 185.02C152.81 183.042 150.008 181.237 147.579 179.654C143.694 177.122 141.678 176.267 139.596 176.267C134.292 176.267 129.336 177.165 124.865 178.937C120.379 180.712 116.496 183.151 113.322 186.188C110.292 189.089 107.589 192.611 105.291 196.656C103.077 200.555 101.284 204.622 99.9639 208.745C98.6892 212.73 97.623 217.09 96.795 221.703C95.9748 226.276 95.4176 230.613 95.1422 234.598C94.8713 238.501 94.7344 242.552 94.7344 246.644C94.7344 257.293 98.1195 265.914 104.795 272.272C111.388 278.546 120.111 281.728 130.72 281.728H228.947C239.556 281.728 248.276 278.547 254.87 272.272C261.547 265.919 264.933 257.296 264.933 246.643C264.931 242.532 264.792 238.478 264.52 234.593V234.593Z" fill="#D7D7D7"/>
</svg>
