<svg width="289" height="63" viewBox="0 0 289 63" fill="none" xmlns="http://www.w3.org/2000/svg">
<g clip-path="url(#clip0)">
<path d="M58.4388 21.8469H4.02979V56.3948H58.4388V21.8469Z" fill="#81BD4B"/>
<path d="M4.02979 28.9574C5.19376 29.4485 6.46961 29.7218 7.80818 29.7218C10.8919 29.7218 13.7793 28.2406 15.6168 25.8237C17.4544 28.2403 20.342 29.7218 23.4254 29.7218C26.5091 29.7218 29.3966 28.2406 31.234 25.8237C33.0716 28.2403 35.9592 29.7218 39.0427 29.7218C42.1263 29.7218 45.0138 28.2406 46.8513 25.8237C48.6889 28.2403 51.5765 29.7218 54.6599 29.7218C55.9985 29.7218 57.2743 29.4485 58.4383 28.9574V21.8468H4.02979V28.9574Z" fill="#95D15F"/>
<path d="M62.469 19.8144C62.469 24.1637 58.9729 27.6894 54.6603 27.6894C51.5382 27.6894 48.8441 25.8417 47.5946 23.1713C47.2901 22.5204 46.4133 22.5204 46.1088 23.1713C44.8593 25.8417 42.1652 27.6894 39.0431 27.6894C35.921 27.6894 33.2269 25.8417 31.9774 23.1713C31.6729 22.5204 30.7961 22.5204 30.4916 23.1713C29.2421 25.8417 26.548 27.6894 23.4259 27.6894C20.3038 27.6894 17.6097 25.8417 16.3602 23.1713C16.0556 22.5204 15.1789 22.5204 14.8743 23.1713C13.6248 25.8417 10.9307 27.6894 7.80862 27.6894C3.49607 27.6894 0 24.1637 0 19.8144L7.48029 6.61262C7.83912 5.97942 8.50676 5.58862 9.22991 5.58862H53.239C53.9622 5.58862 54.6298 5.97942 54.9887 6.61262L62.469 19.8144Z" fill="#225B74"/>
<path d="M53.239 5.58862H9.22991C8.50676 5.58862 7.83912 5.97942 7.48029 6.61262L0 19.8144H62.469L54.9887 6.61262C54.6298 5.97942 53.9622 5.58862 53.239 5.58862Z" fill="#4A839C"/>
<path d="M41.3105 33.0242V56.3951H53.4013V33.0242C53.4013 32.463 52.9503 32.0081 52.3938 32.0081H42.3181C41.7616 32.0081 41.3105 32.463 41.3105 33.0242Z" fill="#F8F8F8"/>
<path d="M60.4541 57.4114H2.01537C1.45839 57.4114 1.00781 56.9569 1.00781 56.3953C1.00781 55.8337 1.45852 55.3792 2.01537 55.3792H60.4541C61.0111 55.3792 61.4617 55.8337 61.4617 56.3953C61.4617 56.9569 61.011 57.4114 60.4541 57.4114Z" fill="#DBD9DC"/>
<path d="M35.2649 51.3145H10.0759C9.51943 51.3145 9.06836 50.8596 9.06836 50.2984V33.0242C9.06836 32.463 9.51943 32.0081 10.0759 32.0081H35.2651C35.8215 32.0081 36.2726 32.463 36.2726 33.0242V50.2984C36.2725 50.8596 35.8214 51.3145 35.2649 51.3145Z" fill="#F8F8F8"/>
<path d="M22.166 49.2822H33.753C34.0312 49.2822 34.2568 49.0547 34.2568 48.7741V37.0886L22.166 49.2822Z" fill="#FFF6D8"/>
<path d="M16.1205 49.2822L31.2339 34.0403H27.9074L12.7939 49.2822H16.1205Z" fill="#FFF6D8"/>
<path d="M24.3541 34.0403H11.5868C11.3086 34.0403 11.083 34.2678 11.083 34.5483V47.4243L24.3541 34.0403Z" fill="#FFF6D8"/>
<path d="M51.3856 35.8259V34.5483C51.3856 34.2677 51.16 34.0403 50.8819 34.0403H43.829C43.5508 34.0403 43.3252 34.2677 43.3252 34.5483V43.955L51.3856 35.8259Z" fill="#FFF6D8"/>
<path d="M43.3252 48.2662V49.7904C43.3252 50.0709 43.5508 50.2984 43.829 50.2984H50.8819C51.16 50.2984 51.3856 50.0709 51.3856 49.7904V40.1371L43.3252 48.2662Z" fill="#FFF6D8"/>
</g>
<path d="M90.0089 18.9146L96.9885 38.8684L103.931 18.9146H111.284V46.4267H105.666V38.9062L106.226 25.9249L98.892 46.4267H95.0476L87.7321 25.9438L88.292 38.9062V46.4267H82.6934V18.9146H90.0089Z" fill="white"/>
<path d="M122.126 46.4267H116.528V18.9146H122.126V46.4267Z" fill="white"/>
<path d="M149.429 46.4267H143.83L132.932 28.3246V46.4267H127.333V18.9146H132.932L143.849 37.0544V18.9146H149.429V46.4267Z" fill="white"/>
<path d="M160.272 46.4267H154.673V18.9146H160.272V46.4267Z" fill="white"/>
<path d="M188.324 36.8493C188.113 39.8205 187.034 42.1595 185.086 43.8664C183.151 45.5733 180.596 46.4267 177.421 46.4267C173.948 46.4267 171.213 45.2382 169.216 42.8613C167.231 40.4716 166.239 37.197 166.239 33.0373V31.3494C166.239 28.6943 166.698 26.3552 167.616 24.3323C168.533 22.3093 169.842 20.7605 171.541 19.6858C173.253 18.5985 175.238 18.0548 177.495 18.0548C180.621 18.0548 183.139 18.9082 185.049 20.6151C186.959 22.322 188.063 24.7179 188.361 27.8029H182.779C182.643 26.0202 182.153 24.7306 181.309 23.934C180.478 23.1248 179.207 22.7202 177.495 22.7202C175.635 22.7202 174.239 23.403 173.309 24.7685C172.391 26.1213 171.92 28.2265 171.895 31.0839V33.1701C171.895 36.1539 172.335 38.3349 173.216 39.713C174.109 41.0912 175.511 41.7802 177.421 41.7802C179.145 41.7802 180.429 41.382 181.272 40.5854C182.128 39.7763 182.618 38.5309 182.742 36.8493H188.324Z" fill="#81BD4B"/>
<path d="M207.283 40.3579H197.497L195.636 46.0474H189.701L199.785 18.4341H204.957L215.098 46.0474H209.162L207.283 40.3579ZM199.004 35.7493H205.776L202.371 25.4133L199.004 35.7493Z" fill="#81BD4B"/>
<path d="M227.657 35.939H223.21V46.0474H217.628V18.4341H227.694C230.894 18.4341 233.362 19.1611 235.099 20.6151C236.835 22.0691 237.704 24.1237 237.704 26.7788C237.704 28.6627 237.301 30.2368 236.494 31.5011C235.7 32.7528 234.491 33.7517 232.866 34.4976L238.727 45.7819V46.0474H232.736L227.657 35.939ZM223.21 31.3304H227.712C229.114 31.3304 230.199 30.9701 230.968 30.2494C231.737 29.5161 232.122 28.5109 232.122 27.234C232.122 25.9317 231.756 24.9076 231.024 24.1616C230.305 23.4156 229.195 23.0427 227.694 23.0427H223.21V31.3304Z" fill="#81BD4B"/>
<path d="M241.964 46.0474V18.4341H250.3C252.681 18.4341 254.809 18.9841 256.682 20.0841C258.567 21.1714 260.037 22.7266 261.091 24.7495C262.145 26.7598 262.673 29.0483 262.673 31.6149V32.8856C262.673 35.4522 262.152 37.7343 261.11 39.732C260.08 41.7297 258.623 43.2785 256.737 44.3785C254.852 45.4785 252.725 46.0348 250.356 46.0474H241.964ZM247.546 23.0427V41.4768H250.244C252.427 41.4768 254.095 40.7498 255.249 39.2958C256.402 37.8418 256.992 35.762 257.016 33.0563V31.5959C257.016 28.7891 256.446 26.665 255.305 25.2236C254.164 23.7696 252.495 23.0427 250.3 23.0427H247.546Z" fill="#81BD4B"/>
<path d="M289 32.8666C289 35.585 288.528 37.9682 287.586 40.0165C286.643 42.0647 285.291 43.6452 283.53 44.7578C281.781 45.8704 279.771 46.4267 277.501 46.4267C275.256 46.4267 273.253 45.8767 271.492 44.7767C269.73 43.6768 268.366 42.109 267.398 40.0734C266.431 38.0251 265.941 35.6735 265.929 33.0183V31.6528C265.929 28.9345 266.406 26.5449 267.361 24.484C268.329 22.4105 269.687 20.8237 271.436 19.7237C273.197 18.6111 275.207 18.0548 277.464 18.0548C279.722 18.0548 281.725 18.6111 283.474 19.7237C285.235 20.8237 286.593 22.4105 287.549 24.484C288.516 26.5449 289 28.9282 289 31.6339V32.8666ZM283.344 31.6149C283.344 28.7196 282.835 26.5196 281.818 25.015C280.801 23.5105 279.35 22.7582 277.464 22.7582C275.591 22.7582 274.146 23.5041 273.129 24.9961C272.112 26.4753 271.597 28.65 271.585 31.5201V32.8666C271.585 35.6861 272.093 37.8734 273.11 39.4286C274.128 40.9837 275.591 41.7613 277.501 41.7613C279.374 41.7613 280.813 41.0153 281.818 39.5234C282.823 38.0188 283.331 35.8315 283.344 32.9614V31.6149Z" fill="#81BD4B"/>
<defs>
<clipPath id="clip0">
<rect width="62.469" height="63" fill="white"/>
</clipPath>
</defs>
</svg>
