<svg width="30" height="30" viewBox="0 0 30 30" fill="none" xmlns="http://www.w3.org/2000/svg">
<g clip-path="url(#clip0)">
<path d="M1.68633 12.6475L1.6395 12.6577H21.7141L15.4034 6.33309C15.0944 6.02431 14.9249 5.60602 14.9249 5.16699C14.9249 4.72797 15.0944 4.3126 15.4034 4.00309L16.3854 3.02065C16.6941 2.71187 17.1056 2.54114 17.5444 2.54114C17.9834 2.54114 18.3951 2.71065 18.7039 3.01943L29.5217 13.8363C29.8317 14.1463 30.0012 14.5592 30 14.9985C30.0012 15.4402 29.8317 15.8533 29.5217 16.1628L18.7039 26.9806C18.3951 27.2892 17.9837 27.4589 17.5444 27.4589C17.1056 27.4589 16.6941 27.2889 16.3854 26.9806L15.4034 25.9982C15.0944 25.6899 14.9249 25.2782 14.9249 24.8392C14.9249 24.4004 15.0944 24.0104 15.4034 23.7019L21.7854 17.3419H1.66389C0.759748 17.3419 -7.62939e-06 16.5626 -7.62939e-06 15.6589V14.2694C-7.62939e-06 13.3658 0.782187 12.6475 1.68633 12.6475Z" fill="white"/>
</g>
<defs>
<clipPath id="clip0">
<rect width="30" height="30" transform="matrix(-1 0 0 1 30 0)" fill="white"/>
</clipPath>
</defs>
</svg>
