<svg width="512" height="512" viewBox="0 0 512 512" fill="none" xmlns="http://www.w3.org/2000/svg">
<g clip-path="url(#clip0)">
<path d="M508.874 478.708L360.142 329.976C388.352 295.149 405.333 250.873 405.333 202.667C405.333 90.917 314.416 0 202.666 0C90.916 0 0 90.917 0 202.667C0 314.417 90.917 405.334 202.667 405.334C250.873 405.334 295.149 388.352 329.976 360.143L478.708 508.875C482.875 513.04 489.627 513.04 493.794 508.875L508.875 493.793C513.04 489.627 513.04 482.873 508.874 478.708ZM202.667 362.667C114.438 362.667 42.667 290.896 42.667 202.667C42.667 114.438 114.438 42.667 202.667 42.667C290.896 42.667 362.667 114.438 362.667 202.667C362.667 290.896 290.896 362.667 202.667 362.667Z" fill="white"/>
</g>
<defs>
<clipPath id="clip0">
<rect width="511.999" height="511.999" fill="white"/>
</clipPath>
</defs>
</svg>
