<svg width="512" height="512" viewBox="0 0 512 512" fill="none" xmlns="http://www.w3.org/2000/svg">
<g clip-path="url(#clip0)">
<path d="M508.177 245.995C503.607 240.897 393.682 121 256 121C118.318 121 8.39401 240.897 3.82301 245.995C-1.27499 251.693 -1.27499 260.307 3.82301 266.005C8.39401 271.103 118.32 391 256 391C393.68 391 503.606 271.103 508.177 266.005C513.274 260.307 513.274 251.693 508.177 245.995ZM256 361C198.109 361 151 313.891 151 256C151 198.109 198.109 151 256 151C313.891 151 361 198.109 361 256C361 313.891 313.891 361 256 361Z" fill="#D7D7D7"/>
<path d="M271 226C271 210.91 278.491 197.635 289.887 189.47C279.661 184.235 268.255 181 256 181C214.647 181 181 214.647 181 256C181 297.353 214.647 331 256 331C293.024 331 323.668 303.966 329.722 268.642C299.516 278.367 271 255.522 271 226Z" fill="#D7D7D7"/>
</g>
<defs>
<clipPath id="clip0">
<rect width="512" height="512" fill="white"/>
</clipPath>
</defs>
</svg>
