<svg width="512" height="512" viewBox="0 0 512 512" fill="none" xmlns="http://www.w3.org/2000/svg">
<g clip-path="url(#clip0)">
<path d="M373.483 305.216L373.291 306.816C326.379 283.435 321.472 280.32 315.413 289.408C311.211 295.701 298.965 309.973 295.275 314.197C291.541 318.357 287.829 318.677 281.493 315.797C275.093 312.597 254.549 305.877 230.229 284.117C211.285 267.157 198.571 246.357 194.816 239.957C188.565 229.163 201.643 227.627 213.547 205.099C215.68 200.619 214.592 197.099 213.013 193.92C211.413 190.72 198.677 159.36 193.344 146.859C188.224 134.4 182.955 135.979 179.008 135.979C166.72 134.912 157.739 135.083 149.824 143.317C115.392 181.163 124.075 220.203 153.536 261.717C211.435 337.493 242.283 351.445 298.688 370.816C313.92 375.659 327.808 374.976 338.795 373.397C351.04 371.456 376.491 358.016 381.803 342.976C387.243 327.936 387.243 315.456 385.643 312.576C384.064 309.696 379.883 308.096 373.483 305.216V305.216Z" fill="white"/>
<path d="M437.76 73.5786C273.728 -84.9921 2.26133 30.0159 2.15467 253.717C2.15467 298.432 13.8667 342.037 36.1813 380.544L0 512L135.147 476.757C303.787 567.851 511.915 446.891 512 253.845C512 186.091 485.547 122.325 437.44 74.4106L437.76 73.5786ZM469.376 253.141C469.248 415.979 290.496 517.675 149.12 434.56L141.44 429.995L61.44 450.795L82.88 373.035L77.7813 365.035C-10.1973 224.981 90.88 41.9413 257.536 41.9413C314.155 41.9413 367.296 64.0213 407.317 104.021C447.317 143.68 469.376 196.821 469.376 253.141V253.141Z" fill="white"/>
</g>
<defs>
<clipPath id="clip0">
<rect width="512" height="512" fill="white"/>
</clipPath>
</defs>
</svg>
